<?xml version="1.0" encoding="utf-8"?>
<!-- Generator: Adobe Illustrator 21.1.0, SVG Export Plug-In . SVG Version: 6.00 Build 0)  -->
<svg version="1.1" id="Layer_1" xmlns="http://www.w3.org/2000/svg" xmlns:xlink="http://www.w3.org/1999/xlink" x="0px" y="0px"
	 viewBox="0 0 197 228.1" style="enable-background:new 0 0 197 228.1;" xml:space="preserve">
<style type="text/css">
	.st0{enable-background:new    ;}
	.st1{fill:#3EC4E0;}
</style>
<g class="st0">
	<path class="st1" d="M66.1,152.3c3,7.8,7.5,14.6,11.4,19.5c-0.9,0.1-1.9,0.2-2.9,0.2c-19.7,0-54.9-17.8-59-41L6.4,79.2
		C5,71.1,8.7,63,15.7,59.2c19.6-10.9,41.4-16.5,63.5-16.5c6.9,0,13.8,0.5,20.7,1.6c5,0.8,9.2,3.8,12.1,7.8
		c-5.5,0.2-11.1,0.7-16.5,1.5c-5.7,0.9-10.9,3.6-14.9,7.5c-0.5,0-0.9-0.1-1.4-0.1c-19,0-37.9,4.9-54.6,14.1c0,0-0.2,0.3-0.1,0.8
		l9.2,51.8C35.5,137.4,52.4,148.6,66.1,152.3z M52.6,101.5c-6.3,1.1-12.3-3.1-13.4-9.3c-0.2-1.2-0.2-2.4,0-3.5
		c3.1,1.6,7.2,2.2,11.4,1.5c4.2-0.7,7.8-2.7,10.2-5.3c0.5,1,1,2.1,1.2,3.3C63.1,94.4,58.9,100.4,52.6,101.5z M63.6,125.9
		c-6.1,2.1-11.1,5.3-14.4,8.9c-0.7-9.5,6.2-18.4,16.6-21.4L63.6,125.9z M190.6,97.6l-9.2,51.8c-4.4,25.1-45.3,43.9-63.5,40.7
		c-18.2-3.2-50.1-34.7-45.7-59.8l9.2-51.8C82.8,70.3,89.1,64,97,62.8c29-4.6,58.6,0.6,84.3,14.8C188.3,81.5,192,89.5,190.6,97.6z
		 M158.1,141c-8.1,4.9-19.8,7-32.3,4.8c-12.5-2.2-22.8-8.2-28.7-15.5c-1.3,15.5,9.6,29.8,25.7,32.6C138.8,165.7,154,156,158.1,141z
		 M102.4,109c3.1-1.6,7.2-2.2,11.4-1.5c4.2,0.7,7.8,2.7,10.2,5.3c0.5-1,1-2.1,1.2-3.3c1.1-6.3-3.1-12.2-9.4-13.3
		c-6.3-1.1-12.3,3.1-13.4,9.3C102.2,106.7,102.2,107.9,102.4,109z M161.5,115.9c1.1-6.3-3.1-12.2-9.4-13.3
		c-6.3-1.1-12.3,3.1-13.4,9.3c-0.2,1.2-0.2,2.4,0,3.5c3.1-1.6,7.2-2.2,11.4-1.5c4.2,0.7,7.8,2.7,10.2,5.3
		C160.9,118.2,161.3,117.1,161.5,115.9z"/>
</g>
</svg>
