<?xml version="1.0" encoding="utf-8"?>
<!-- Generator: Adobe Illustrator 21.1.0, SVG Export Plug-In . SVG Version: 6.00 Build 0)  -->
<svg version="1.1" id="Layer_1" xmlns="http://www.w3.org/2000/svg" xmlns:xlink="http://www.w3.org/1999/xlink" x="0px" y="0px"
	 viewBox="0 0 197 228.1" style="enable-background:new 0 0 197 228.1;" xml:space="preserve">
<style type="text/css">
	.st0{fill:#3EC4E0;}
	.st1{fill:#3EC4E0;stroke:#FFFFFF;stroke-width:3.2901;stroke-miterlimit:10;}
</style>
<g>
	<path class="st0" d="M90.8,61.2v21.4c0,7.5-5.2,13.8-12.2,15.6c-1,0.3-1.7,1.2-1.7,2.2v4.7c0,1.5,1.3,2.6,2.8,2.3
		c4.2-0.8,7.9-2.7,11.1-5.3v67.7c0,11.5-9.3,20.8-20.8,20.8c-9.2,0-16.9-6-19.6-14.2c-1.1,0.2-2.3,0.3-3.5,0.3
		c-11.5,0-20.8-9.3-20.8-20.8c0-1.4,0.1-2.8,0.4-4.1c-8.4-3.5-14.3-11.7-14.3-21.3c0-8.6,4.7-16,11.6-19.9
		c-1.5-3.1-2.4-6.4-2.4-10.1c0-9.6,5.9-17.9,14.3-21.3c-0.3-1.3-0.5-2.7-0.5-4.1c0-10.2,8.3-18.5,18.5-18.5c0.2,0,0.4,0.1,0.6,0.1
		c2-8,9.2-13.9,17.8-13.9C82.5,42.8,90.8,51,90.8,61.2z M164.2,151.8c0.3,1.3,0.4,2.7,0.4,4.1c0,11.5-9.3,20.8-20.8,20.8
		c-1.2,0-2.3-0.2-3.5-0.3c-2.8,8.2-10.5,14.2-19.6,14.2c-11.5,0-20.8-9.3-20.8-20.8v-67.7c3.2,2.6,6.9,4.5,11.1,5.3
		c1.4,0.3,2.8-0.8,2.8-2.3v-4.7c0-1-0.7-2-1.7-2.2c-7-1.8-12.2-8.1-12.2-15.6V61.2c0-10.2,8.3-18.5,18.5-18.5
		c8.6,0,15.8,5.9,17.8,13.9c0.2,0,0.4-0.1,0.6-0.1c10.2,0,18.5,8.3,18.5,18.5c0,1.4-0.2,2.7-0.5,4.1c8.4,3.5,14.3,11.7,14.3,21.3
		c0,3.6-0.9,7-2.4,10.1c6.9,4,11.6,11.4,11.6,19.9C178.5,140.1,172.6,148.4,164.2,151.8z"/>
</g>
<g>
	<g>
		<path class="st1" d="M182.6,73.9c-1.8,5.7-4.8,10.8-8.7,15.1c-0.6,0.7-1.6,0.8-2.4,0.4l-6.8-3.9c-2.9,2.4-6.2,4.3-9.7,5.6v7.8
			c0,0.9-0.6,1.7-1.5,1.9c-5.6,1.2-11.6,1.3-17.4,0c-0.9-0.2-1.5-1-1.5-1.9V91c-3.6-1.2-6.8-3.1-9.7-5.6l-6.8,3.9
			c-0.8,0.4-1.8,0.3-2.4-0.4c-3.9-4.3-7-9.4-8.7-15.1c-0.3-0.9,0.1-1.8,0.9-2.2l6.8-3.9c-0.7-3.7-0.7-7.5,0-11.2l-6.8-3.9
			c-0.8-0.4-1.1-1.4-0.9-2.2c1.8-5.7,4.8-10.8,8.7-15.1c0.6-0.7,1.6-0.8,2.4-0.4l6.8,3.9c2.9-2.4,6.2-4.3,9.7-5.6v-7.8
			c0-0.9,0.6-1.7,1.5-1.9c5.6-1.2,11.6-1.3,17.4,0c0.9,0.2,1.5,1,1.5,1.9v7.8c3.6,1.2,6.8,3.1,9.7,5.6l6.8-3.9
			c0.8-0.4,1.8-0.3,2.4,0.4c3.9,4.3,7,9.4,8.7,15.1c0.3,0.9-0.1,1.8-0.9,2.2l-6.8,3.9c0.7,3.7,0.7,7.5,0,11.2l6.8,3.9
			C182.5,72.1,182.8,73,182.6,73.9z M157.5,62.1c0-7-5.7-12.8-12.8-12.8S132,55.1,132,62.1s5.7,12.8,12.8,12.8
			S157.5,69.1,157.5,62.1z"/>
	</g>
</g>
</svg>
