<?xml version="1.0" encoding="utf-8"?>
<!-- Generator: Adobe Illustrator 21.1.0, SVG Export Plug-In . SVG Version: 6.00 Build 0)  -->
<svg version="1.1" id="Layer_1" xmlns="http://www.w3.org/2000/svg" xmlns:xlink="http://www.w3.org/1999/xlink" x="0px" y="0px"
	 viewBox="0 0 197 228.1" style="enable-background:new 0 0 197 228.1;" xml:space="preserve">
<style type="text/css">
	.st0{fill:#3EC4E0;}
</style>
<g>
	<path class="st0" d="M160.6,152c-1.2,4.4-1.2,17.1,0,21.6c1.6,1.3,2.6,3.2,2.6,5.4v4.6c0,3.8-3.1,6.9-6.9,6.9H61.5
		c-15.3,0-27.7-12.4-27.7-27.7V70.5c0-15.3,12.4-27.7,27.7-27.7h94.7c3.8,0,6.9,3.1,6.9,6.9v97C163.2,148.8,162.1,150.8,160.6,152z
		 M143.9,153.6H61.5c-5.1,0-9.2,4.2-9.2,9.2c0,5.1,4.1,9.2,9.2,9.2h82.4C143.4,167.1,143.4,158.5,143.9,153.6z M70.7,87.2
		c0,1,0.8,1.7,1.7,1.7h61.2c1,0,1.7-0.8,1.7-1.7v-5.8c0-1-0.8-1.7-1.7-1.7H72.4c-1,0-1.7,0.8-1.7,1.7C70.8,81.4,70.8,87.2,70.7,87.2
		z M70.7,105.7c0,1,0.8,1.7,1.7,1.7h61.2c1,0,1.7-0.8,1.7-1.7v-5.8c0-1-0.8-1.7-1.7-1.7H72.4c-1,0-1.7,0.8-1.7,1.7
		C70.8,99.9,70.8,105.7,70.7,105.7z"/>
</g>
</svg>
