<?xml version="1.0" encoding="utf-8"?>
<!-- Generator: Adobe Illustrator 21.1.0, SVG Export Plug-In . SVG Version: 6.00 Build 0)  -->
<svg version="1.1" id="Layer_1" xmlns="http://www.w3.org/2000/svg" xmlns:xlink="http://www.w3.org/1999/xlink" x="0px" y="0px"
	 viewBox="0 0 197 228.1" style="enable-background:new 0 0 197 228.1;" xml:space="preserve">
<style type="text/css">
	.st0{fill:#3EC4E0;}
</style>
<g>
	<path class="st0" d="M170.8,75.6c0,47.6-51.4,48.4-51.4,66v2.4c0,5.4-4.4,9.9-9.9,9.9H79.7c-5.4,0-9.9-4.4-9.9-9.9v-4
		c0-25.4,19.3-35.5,33.8-43.7c12.5-7,20.1-11.8,20.1-21c0-12.3-15.6-20.4-28.3-20.4c-16.1,0-23.7,7.4-34,20.3
		c-3.3,4.2-9.4,4.9-13.7,1.7L30.2,63.4c-4.2-3.2-5.2-9.2-2.1-13.5c16.7-24,37.9-37.4,70.7-37.4C133.6,12.5,170.8,39.7,170.8,75.6z
		 M123,194.3c0,15.7-12.8,28.4-28.4,28.4S66.1,210,66.1,194.3c0-15.7,12.8-28.4,28.4-28.4S123,178.6,123,194.3z"/>
</g>
</svg>
