<?xml version="1.0" encoding="utf-8"?>
<!-- Generator: Adobe Illustrator 21.1.0, SVG Export Plug-In . SVG Version: 6.00 Build 0)  -->
<svg version="1.1" id="Layer_1" xmlns="http://www.w3.org/2000/svg" xmlns:xlink="http://www.w3.org/1999/xlink" x="0px" y="0px"
	 viewBox="0 0 197 228.1" style="enable-background:new 0 0 197 228.1;" xml:space="preserve">
<style type="text/css">
	.st0{enable-background:new    ;}
	.st1{fill:#3EC4E0;}
</style>
<g class="st0">
	<path class="st1" d="M168.3,64.9v127.9c0,9.6-7.8,17.4-17.4,17.4H46.2c-9.6,0-17.4-7.8-17.4-17.4V64.9c0-9.6,7.8-17.4,17.4-17.4
		h29.1c0-12.8,10.4-23.3,23.3-23.3s23.3,10.4,23.3,23.3h29.1C160.4,47.5,168.3,55.3,168.3,64.9z M142.6,116.8l-10.2-10.3
		c-1.7-1.7-4.5-1.7-6.2,0l-38.5,38.2l-16.7-16.9c-1.7-1.7-4.5-1.7-6.2,0L54.4,138c-1.7,1.7-1.7,4.5,0,6.2l30,30.3
		c1.7,1.7,4.5,1.7,6.2,0l52-51.5C144.2,121.3,144.3,118.5,142.6,116.8z M89.8,47.5c0,4.8,3.9,8.7,8.7,8.7s8.7-3.9,8.7-8.7
		s-3.9-8.7-8.7-8.7S89.8,42.6,89.8,47.5z"/>
</g>
</svg>
