<?xml version="1.0" encoding="utf-8"?>
<!-- Generator: Adobe Illustrator 21.1.0, SVG Export Plug-In . SVG Version: 6.00 Build 0)  -->
<svg version="1.1" id="Layer_1" xmlns="http://www.w3.org/2000/svg" xmlns:xlink="http://www.w3.org/1999/xlink" x="0px" y="0px"
	 viewBox="0 0 197 228.1" style="enable-background:new 0 0 197 228.1;" xml:space="preserve">
<style type="text/css">
	.st0{fill:#3EC4E0;}
</style>
<g>
	<path class="st0" d="M181.6,116.6c0,1.2-0.4,3.1-1,4.2C165,151.3,134,172,98.5,172S32,151.3,16.4,120.8c-0.6-1.1-1-3-1-4.2
		s0.4-3.1,1-4.2C32,81.8,63,61.2,98.5,61.2s66.5,20.7,82.1,51.2C181.2,113.5,181.6,115.3,181.6,116.6z M98.5,158.1
		c22.9,0,41.5-18.6,41.5-41.5v0c0-22.9-18.6-41.6-41.6-41.6s-41.6,18.6-41.6,41.6S75.6,158.1,98.5,158.1L98.5,158.1z M98.6,88.9
		c15.3,0,27.6,12.4,27.6,27.6s-12.4,27.6-27.6,27.6s-27.6-12.4-27.6-27.6c0-2,0.4-5.3,1-7.2c2,1.5,5.7,2.7,8.2,2.7
		c7.6,0,13.8-6.2,13.8-13.8c0-2.5-1.2-6.2-2.7-8.2C93.2,89.4,96.4,88.9,98.6,88.9L98.6,88.9z"/>
</g>
</svg>
