<?xml version="1.0" encoding="utf-8"?>
<!-- Generator: Adobe Illustrator 21.1.0, SVG Export Plug-In . SVG Version: 6.00 Build 0)  -->
<svg version="1.1" id="Layer_1" xmlns="http://www.w3.org/2000/svg" xmlns:xlink="http://www.w3.org/1999/xlink" x="0px" y="0px"
	 viewBox="0 0 197 228.1" style="enable-background:new 0 0 197 228.1;" xml:space="preserve">
<style type="text/css">
	.st0{enable-background:new    ;}
	.st1{fill:#3EC4E0;}
</style>
<g class="st0">
	<path class="st1" d="M127.4,130.1c2.9,1.7,4.2,5.2,3,8.4c-2.6,7-7.6,13.4-12.3,19c-2.1,2.6-5.8,3.2-8.7,1.5l-8.4-4.8
		c-4.6,4-10,7.1-15.8,9.1v9.7c0,3.3-2.4,6.2-5.7,6.8c-7.1,1.2-14.5,1.3-21.9,0c-3.3-0.6-5.8-3.4-5.8-6.8v-9.7
		c-5.9-2.1-11.2-5.2-15.8-9.1l-8.4,4.8c-2.9,1.7-6.6,1-8.7-1.5c-4.7-5.6-9.6-12-12.2-19c-1.2-3.1,0.1-6.7,3-8.4l9.6-4.8
		c-1.1-6-1.1-12.2,0-18.3l-9.6-4.9c-2.9-1.7-4.2-5.2-3-8.4c2.6-7,7.5-13.4,12.2-19c2.1-2.6,5.8-3.2,8.7-1.5l8.4,4.8
		c4.6-4,10-7.1,15.8-9.1v-9.7c0-3.3,2.4-6.2,5.7-6.8c7.1-1.2,14.6-1.3,21.9,0c3.3,0.6,5.8,3.4,5.8,6.8v9.7C91,70.9,96.3,74.1,101,78
		l8.4-4.8c2.9-1.7,6.6-1,8.7,1.5c4.7,5.6,9.6,12,12.2,19c1.2,3.1,0,6.7-2.9,8.4l-9.7,4.8c1.1,6.1,1.1,12.3,0,18.3L127.4,130.1z
		 M53.2,100.8c-17.1,22.2,8.3,47.6,30.5,30.5C100.8,109.1,75.4,83.8,53.2,100.8z M151.6,101.9c-0.9,1.5-2.7,2.2-4.4,1.6
		c-3.4-1.3-6.5-3.1-9.3-5.4c-1.3-1.1-1.7-3-0.8-4.5l2.4-4.1c-2-2.3-3.6-5-4.6-7.9h-4.8c-1.7,0-3.2-1.2-3.5-3
		c-0.6-3.5-0.6-7.1,0-10.7c0.3-1.7,1.8-3,3.5-3h4.8c1-2.9,2.6-5.6,4.6-7.9l-2.4-4.1c-0.9-1.5-0.5-3.4,0.8-4.5
		c2.7-2.3,5.9-4.1,9.3-5.4c1.6-0.6,3.5,0,4.4,1.6l2.4,4.1c3-0.5,6.1-0.5,9.1,0l2.4-4.1c0.9-1.5,2.7-2.2,4.4-1.6
		c3.4,1.3,6.5,3.1,9.3,5.4c1.3,1.1,1.7,3,0.8,4.5l-2.4,4.1c2,2.3,3.6,5,4.6,7.9h4.8c1.7,0,3.2,1.2,3.5,3c0.6,3.5,0.6,7.1,0,10.7
		c-0.3,1.7-1.8,3-3.5,3h-4.8c-1,2.9-2.6,5.6-4.6,7.9l2.4,4.1c0.9,1.5,0.5,3.4-0.8,4.5c-2.7,2.3-5.9,4.1-9.3,5.4
		c-1.6,0.6-3.5,0-4.4-1.6l-2.4-4.1c-3,0.5-6.1,0.5-9.1,0L151.6,101.9z M151.6,188.2c-0.9,1.5-2.7,2.2-4.4,1.6
		c-3.4-1.3-6.5-3.1-9.3-5.4c-1.3-1.1-1.7-3-0.8-4.5l2.4-4.1c-2-2.3-3.6-5-4.6-7.9h-4.8c-1.7,0-3.2-1.2-3.5-3
		c-0.6-3.5-0.6-7.1,0-10.7c0.3-1.7,1.8-3,3.5-3h4.8c1-2.9,2.6-5.6,4.6-7.9l-2.4-4.1c-0.9-1.5-0.5-3.4,0.8-4.5
		c2.7-2.3,5.9-4.1,9.3-5.4c1.6-0.6,3.5,0,4.4,1.6l2.4,4.1c3-0.5,6.1-0.5,9.1,0l2.4-4.1c0.9-1.5,2.7-2.2,4.4-1.6
		c3.4,1.3,6.5,3.1,9.3,5.4c1.3,1.1,1.7,3,0.8,4.5l-2.4,4.1c2,2.3,3.6,5,4.6,7.9h4.8c1.7,0,3.2,1.2,3.5,3c0.6,3.5,0.6,7.1,0,10.7
		c-0.3,1.7-1.8,3-3.5,3h-4.8c-1,2.9-2.6,5.6-4.6,7.9l2.4,4.1c0.9,1.5,0.5,3.4-0.8,4.5c-2.7,2.3-5.9,4.1-9.3,5.4
		c-1.6,0.6-3.5,0-4.4-1.6l-2.4-4.1c-3,0.5-6.1,0.5-9.1,0L151.6,188.2z M166.2,65.6c-11.1-8.6-23.8,4.1-15.2,15.2
		C162,89.4,174.7,76.7,166.2,65.6z M166.2,151.8c-11.1-8.5-23.8,4.1-15.2,15.2C162,175.6,174.7,163,166.2,151.8z"/>
</g>
</svg>
