<?xml version="1.0" encoding="utf-8"?>
<!-- Generator: Adobe Illustrator 21.1.0, SVG Export Plug-In . SVG Version: 6.00 Build 0)  -->
<svg version="1.1" id="Layer_1" xmlns="http://www.w3.org/2000/svg" xmlns:xlink="http://www.w3.org/1999/xlink" x="0px" y="0px"
	 viewBox="0 0 197 228.1" style="enable-background:new 0 0 197 228.1;" xml:space="preserve">
<style type="text/css">
	.st0{fill:#3EC4E0;}
</style>
<g>
	<path class="st0" d="M170,98.6c0,39-29,44.6-29.3,58.6C140.7,181.4,121,201,96.9,201c-6.3,0-11.4-5.1-11.4-11.4
		c0-6.3,5.1-11.4,11.4-11.4c11.7,0,21.1-9.5,21.1-21.1l0-0.2c0.4-29.8,29.3-27.8,29.3-58.4c0-26.9-21.9-48.8-48.8-48.8
		S49.7,71.7,49.7,98.6c0,6.3-5.1,11.4-11.4,11.4c-6.3,0-11.4-5.1-11.4-11.4c0-39.4,32.1-71.5,71.5-71.5S170,59.2,170,98.6z
		 M77.4,110c-6.3,0-11.4-5.1-11.4-11.4c0-17.9,14.6-32.5,32.5-32.5S131,80.7,131,98.6c0,6.3-5.1,11.4-11.4,11.4
		c-6.3,0-11.4-5.1-11.4-11.4c0-5.4-4.4-9.8-9.8-9.8s-9.8,4.4-9.8,9.8C88.7,104.9,83.6,110,77.4,110z"/>
</g>
</svg>
