<?xml version="1.0" encoding="utf-8"?>
<!-- Generator: Adobe Illustrator 21.1.0, SVG Export Plug-In . SVG Version: 6.00 Build 0)  -->
<svg version="1.1" id="Layer_1" xmlns="http://www.w3.org/2000/svg" xmlns:xlink="http://www.w3.org/1999/xlink" x="0px" y="0px"
	 viewBox="0 0 197 228.1" style="enable-background:new 0 0 197 228.1;" xml:space="preserve">
<style type="text/css">
	.st0{enable-background:new    ;}
	.st1{fill:#3EC4E0;}
</style>
<g class="st0">
	<path class="st1" d="M75.4,144.3c-11.8,0-22.8-2.7-32.1-7.2c-6.3,3.7-15,7.2-25.6,7.2c-0.9,0-1.7-0.5-2.1-1.4
		c-0.4-0.9-0.2-1.8,0.4-2.5c0.1-0.1,6.5-7,10.3-15.7c-6.9-7.5-11-16.7-11-26.6c0-25.5,26.9-46.2,60-46.2s60,20.7,60,46.2
		S108.6,144.3,75.4,144.3z M181,177.3c0.6,0.7,0.8,1.7,0.4,2.5c-0.3,0.8-1.2,1.4-2.1,1.4c-10.6,0-19.3-3.5-25.6-7.2
		c-9.3,4.6-20.3,7.2-32.1,7.2c-24.9,0-46.2-11.7-55.3-28.3c3,0.3,6,0.5,9.1,0.5c38.2,0,69.3-24.9,69.3-55.4c0-2-0.1-3.9-0.4-5.8
		c21.9,6.9,37.3,23.4,37.3,42.7c0,9.9-4.1,19-11,26.6C174.5,170.4,180.9,177.2,181,177.3z"/>
</g>
</svg>
